/* XPM */
static char * Close_xpm[] = {
"21 21 5 1",
" 	c #3B5B69",
".	c #090102",
"+	c #000000",
"@	c #6195AA",
"#	c #170102",
"                     ",
"                     ",
".                   .",
"+++               +++",
"+++               +++",
"+++.             ++++",
"++++             ++++",
"++++             ++++",
"++++             ++++",
"++++    @   @    ++++",
"++++     @ @     ++++",
"++++      @      ++++",
"++++     @ @     ++++",
"++++    @   @    ++++",
"++++             ++++",
"++++             ++++",
"++++             ++++",
"++++             ++++",
"+++++           +++++",
"+++++#         #+++++",
"+++++++       +++++++"};
