/* XPM */
static char * focus_task_xpm[] = {
"136 34 4 1",
" 	c #172429",
".	c #172428",
"+	c #172328",
"@	c #162328",
"                                                                                                 .....++++++++++++++++@@@@@@@@@@@@@@@@@@",
"                                                                                                  ....++++++++++++++++@@@@@@@@@@@@@@@@@@",
"                                                                                                  ....++++++++++++++++@@@@@@@@@@@@@@@@@@",
"                                                                                                  .....+++++++++++++++@@@@@@@@@@@@@@@@@@",
"                                                                                                   .....+++++++++++++++++@@@@@@@@@@@@@@@",
"                                                                                                   .....+++++++++++++++++@@@@@@@@@@@@@@@",
"                                                                                                    ....+++++++++++++++++@@@@@@@@@@@@@@@",
"                                                                                                    ....+++++++++++++++++@@@@@@@@@@@@@@@",
"                                                                                                    .....++++++++++++++++@@@@@@@@@@@@@@@",
"                                                                                                    .....++++++++++++++++@@@@@@@@@@@@@@@",
"                                                                                                    .....+++++++++++++++++@@@@@@@@@@@@@@",
"                                                                                                    .....+++++++++++++++++@@@@@@@@@@@@@@",
"                                                                                                     ....+++++++++++++++++@@@@@@@@@@@@@@",
"                                                                                                     ....+++++++++++++++++@@@@@@@@@@@@@@",
"                                                                                                     ....+++++++++++++++++@@@@@@@@@@@@@@",
"                                                                                                     ....+++++++++++++++++@@@@@@@@@@@@@@",
"                                                                                                     ....+++++++++++++++++@@@@@@@@@@@@@@",
"                                                                                                     .....++++++++++++++++@@@@@@@@@@@@@@",
"                                                                                                     .....++++++++++++++++@@@@@@@@@@@@@@",
"                                                                                                     .....++++++++++++++++@@@@@@@@@@@@@@",
"                                                                                                     .....++++++++++++++++@@@@@@@@@@@@@@",
"                                                                                                     .....++++++++++++++++@@@@@@@@@@@@@@",
"                                                                                                     .....++++++++++++++++@@@@@@@@@@@@@@",
"                                                                                                     .....++++++++++++++++@@@@@@@@@@@@@@",
"                                                                                                     .....++++++++++++++++@@@@@@@@@@@@@@",
"                                                                                                     ....+++++++++++++++++@@@@@@@@@@@@@@",
"                                                                                                     ....+++++++++++++++++@@@@@@@@@@@@@@",
"                                                                                                     ....+++++++++++++++++@@@@@@@@@@@@@@",
"                                                                                                     ....+++++++++++++++++@@@@@@@@@@@@@@",
"                                                                                                     ....+++++++++++++++++@@@@@@@@@@@@@@",
"                                                                                                    ....++++++++++++++++@@@@@@@@@@@@@@@@",
"                                                                                                    ....+++++++++++++++@@@@@@@@@@@@@@@@@",
"                                                                                                    ....+++++++++++++++@@@@@@@@@@@@@@@@@",
"                                                                                                   .....+++++++++++++++@@@@@@@@@@@@@@@@@"};
