/* XPM */
static char * grip_xpm[] = {
"20 10 3 1",
" 	c #000000",
".	c #080102",
"+	c #3B5B69",
"       .++++.       ",
"      .++++++.      ",
"      ++++++++      ",
"      ++++++++      ",
"      ++++++++      ",
"      ++++++++      ",
"      .++++++.      ",
"       .++++.       ",
"                    ",
"                    "};
