/* XPM */
static char * grip_unfocus_xpm[] = {
"20 10 2 1",
" 	c #3B5B69",
".	c #6195AA",
"                    ",
"        ....        ",
"       ......       ",
"      ........      ",
"      ........      ",
"      ........      ",
"      ........      ",
"       ......       ",
"        ....        ",
"                    "};
