/* XPM */
static char * Maximize_xpm[] = {
"21 21 3 1",
" 	c #3B5B69",
".	c #000000",
"+	c #6195AA",
"                     ",
"                     ",
".....................",
".....................",
".....................",
".....................",
".....................",
".....................",
".....................",
"........+++++........",
"........+...+........",
"........+...+........",
"........+...+........",
"........+++++........",
".....................",
".....................",
".....................",
".....................",
".....................",
".....................",
"....................."};
