/* XPM */
static char * Title_xpm[] = {
"21 21 2 1",
" 	c #3B5B69",
".	c #000000",
"                     ",
"                     ",
".....................",
".....................",
".....................",
".....................",
".....................",
".....................",
".....................",
".....................",
".....................",
".....................",
".....................",
".....................",
".....................",
".....................",
".....................",
".....................",
".....................",
".....................",
"....................."};
